{
  "accessors": [
    {
      "bufferView": 2,
      "componentType": 5126,
      "count": 1758,
      "max": [
        6.066478729248047,
        0.8701267242431641,
        5.253724098205566
      ],
      "min": [
        -3.0421640872955322,
        -2.637643337249756,
        -1.2118250131607056
      ],
      "type": "VEC3"
    },
    {
      "bufferView": 2,
      "byteOffset": 21096,
      "componentType": 5126,
      "count": 1758,
      "max": [
        1.0,
        1.0,
        0.8660316467285156
      ],
      "min": [
        -1.0,
        -0.9999001026153564,
        -0.9929215908050537
      ],
      "type": "VEC3"
    },
    {
      "bufferView": 1,
      "componentType": 5126,
      "count": 1758,
      "max": [
        1.0000001192092896,
        1.0000001192092896
      ],
      "min": [
        0.0,
        0.0
      ],
      "type": "VEC2"
    },
    {
      "bufferView": 0,
      "componentType": 5125,
      "count": 8832,
      "type": "SCALAR"
    },
    {
      "bufferView": 2,
      "byteOffset": 42192,
      "componentType": 5126,
      "count": 1758,
      "max": [
        6.066478729248047,
        0.8701267242431641,
        1.211824893951416
      ],
      "min": [
        -3.042163848876953,
        -2.637643337249756,
        -5.253724575042725
      ],
      "type": "VEC3"
    },
    {
      "bufferView": 2,
      "byteOffset": 63288,
      "componentType": 5126,
      "count": 1758,
      "max": [
        1.0,
        1.0,
        0.9929215908050537
      ],
      "min": [
        -1.0,
        -0.9999001026153564,
        -0.8660316467285156
      ],
      "type": "VEC3"
    },
    {
      "bufferView": 1,
      "byteOffset": 14064,
      "componentType": 5126,
      "count": 1758,
      "max": [
        1.0000001192092896,
        1.0000001192092896
      ],
      "min": [
        0.0,
        0.0
      ],
      "type": "VEC2"
    },
    {
      "bufferView": 0,
      "byteOffset": 35328,
      "componentType": 5125,
      "count": 8832,
      "type": "SCALAR"
    },
    {
      "bufferView": 2,
      "byteOffset": 84384,
      "componentType": 5126,
      "count": 1758,
      "max": [
        0.6996475458145142,
        0.8701267242431641,
        5.256166458129883
      ],
      "min": [
        -3.0332393646240234,
        -2.637643337249756,
        -5.256166934967041
      ],
      "type": "VEC3"
    },
    {
      "bufferView": 2,
      "byteOffset": 105480,
      "componentType": 5126,
      "count": 1758,
      "max": [
        0.9056142568588257,
        1.0,
        1.0
      ],
      "min": [
        -0.4999893307685852,
        -0.9999001026153564,
        -1.0
      ],
      "type": "VEC3"
    },
    {
      "bufferView": 1,
      "byteOffset": 28128,
      "componentType": 5126,
      "count": 1758,
      "max": [
        1.0000001192092896,
        1.0000001192092896
      ],
      "min": [
        0.0,
        0.0
      ],
      "type": "VEC2"
    },
    {
      "bufferView": 0,
      "byteOffset": 70656,
      "componentType": 5125,
      "count": 8832,
      "type": "SCALAR"
    },
    {
      "bufferView": 2,
      "byteOffset": 126576,
      "componentType": 5126,
      "count": 1536,
      "max": [
        1.514260172843933,
        0.4227960407733917,
        1.5453898906707764
      ],
      "min": [
        -1.514260172843933,
        -0.5029811859130859,
        -1.5453898906707764
      ],
      "type": "VEC3"
    },
    {
      "bufferView": 2,
      "byteOffset": 145008,
      "componentType": 5126,
      "count": 1536,
      "max": [
        0.9999998807907104,
        1.0,
        1.0
      ],
      "min": [
        -0.9999998807907104,
        -1.0,
        -1.0
      ],
      "type": "VEC3"
    },
    {
      "bufferView": 1,
      "byteOffset": 42192,
      "componentType": 5126,
      "count": 1536,
      "max": [
        0.0,
        0.0
      ],
      "min": [
        0.0,
        0.0
      ],
      "type": "VEC2"
    },
    {
      "bufferView": 0,
      "byteOffset": 105984,
      "componentType": 5125,
      "count": 9216,
      "type": "SCALAR"
    },
    {
      "bufferView": 2,
      "byteOffset": 163440,
      "componentType": 5126,
      "count": 287,
      "max": [
        5.570429801940918,
        -1.3399970531463623,
        3.355985164642334
      ],
      "min": [
        4.9084296226501465,
        -2.0019969940185547,
        2.6939849853515625
      ],
      "type": "VEC3"
    },
    {
      "bufferView": 2,
      "byteOffset": 166884,
      "componentType": 5126,
      "count": 287,
      "max": [
        1.0,
        1.0,
        1.0
      ],
      "min": [
        -1.0,
        -1.0,
        -1.0
      ],
      "type": "VEC3"
    },
    {
      "bufferView": 1,
      "byteOffset": 54480,
      "componentType": 5126,
      "count": 287,
      "max": [
        1.000000238418579,
        1.0
      ],
      "min": [
        0.0,
        0.0
      ],
      "type": "VEC2"
    },
    {
      "bufferView": 0,
      "byteOffset": 142848,
      "componentType": 5125,
      "count": 1440,
      "type": "SCALAR"
    },
    {
      "bufferView": 2,
      "byteOffset": 170328,
      "componentType": 5126,
      "count": 287,
      "max": [
        5.570429801940918,
        -1.3399970531463623,
        3.355985164642334
      ],
      "min": [
        4.9084296226501465,
        -2.0019969940185547,
        2.6939849853515625
      ],
      "type": "VEC3"
    },
    {
      "bufferView": 2,
      "byteOffset": 173772,
      "componentType": 5126,
      "count": 287,
      "max": [
        1.0,
        1.0,
        1.0
      ],
      "min": [
        -1.0,
        -1.0,
        -1.0
      ],
      "type": "VEC3"
    },
    {
      "bufferView": 1,
      "byteOffset": 56776,
      "componentType": 5126,
      "count": 287,
      "max": [
        1.000000238418579,
        1.0
      ],
      "min": [
        0.0,
        0.0
      ],
      "type": "VEC2"
    },
    {
      "bufferView": 0,
      "byteOffset": 148608,
      "componentType": 5125,
      "count": 1440,
      "type": "SCALAR"
    },
    {
      "bufferView": 2,
      "byteOffset": 177216,
      "componentType": 5126,
      "count": 287,
      "max": [
        5.570429801940918,
        -1.3399970531463623,
        3.355985164642334
      ],
      "min": [
        4.9084296226501465,
        -2.0019969940185547,
        2.6939849853515625
      ],
      "type": "VEC3"
    },
    {
      "bufferView": 2,
      "byteOffset": 180660,
      "componentType": 5126,
      "count": 287,
      "max": [
        1.0,
        1.0,
        1.0
      ],
      "min": [
        -1.0,
        -1.0,
        -1.0
      ],
      "type": "VEC3"
    },
    {
      "bufferView": 1,
      "byteOffset": 59072,
      "componentType": 5126,
      "count": 287,
      "max": [
        1.000000238418579,
        1.0
      ],
      "min": [
        0.0,
        0.0
      ],
      "type": "VEC2"
    },
    {
      "bufferView": 0,
      "byteOffset": 154368,
      "componentType": 5125,
      "count": 1440,
      "type": "SCALAR"
    }
  ],
  "asset": {
    "extras": {
      "author": "PatelDev (https://sketchfab.com/PatelDev)",
      "license": "CC-BY-4.0 (http://creativecommons.org/licenses/by/4.0/)",
      "source": "https://sketchfab.com/3d-models/clown-hat-0f5ef2e6205c4b438c593a979a3ccdae",
      "title": "Clown Hat"
    },
    "generator": "Sketchfab-10.79.0",
    "version": "2.0"
  },
  "bufferViews": [
    {
      "buffer": 0,
      "byteLength": 160128,
      "name": "floatBufferViews",
      "target": 34963
    },
    {
      "buffer": 0,
      "byteLength": 61368,
      "byteOffset": 160128,
      "byteStride": 8,
      "name": "floatBufferViews",
      "target": 34962
    },
    {
      "buffer": 0,
      "byteLength": 184104,
      "byteOffset": 221496,
      "byteStride": 12,
      "name": "floatBufferViews",
      "target": 34962
    }
  ],
  "buffers": [
    {
      "byteLength": 405600,
      "uri": "scene.bin"
    }
  ],
  "materials": [
    {
      "doubleSided": true,
      "name": "Material.001",
      "pbrMetallicRoughness": {
        "baseColorFactor": [
          0.8,
          0.0144001,
          0.0,
          1.0
        ],
        "metallicFactor": 0.0,
        "roughnessFactor": 0.652
      }
    },
    {
      "doubleSided": true,
      "name": "Material.002",
      "pbrMetallicRoughness": {
        "baseColorFactor": [
          0.0614222,
          0.8,
          0.00240002,
          1.0
        ],
        "metallicFactor": 0.0,
        "roughnessFactor": 0.652
      }
    },
    {
      "doubleSided": true,
      "name": "Material.003",
      "pbrMetallicRoughness": {
        "baseColorFactor": [
          0.00240002,
          0.177872,
          0.8,
          1.0
        ],
        "metallicFactor": 0.0,
        "roughnessFactor": 0.652
      }
    },
    {
      "doubleSided": true,
      "name": "Material.004",
      "pbrMetallicRoughness": {
        "baseColorFactor": [
          0.8,
          0.285784,
          0.004,
          1.0
        ],
        "metallicFactor": 0.0,
        "roughnessFactor": 0.652
      }
    }
  ],
  "meshes": [
    {
      "name": "Object_0",
      "primitives": [
        {
          "attributes": {
            "NORMAL": 1,
            "POSITION": 0,
            "TEXCOORD_0": 2
          },
          "indices": 3,
          "material": 0,
          "mode": 4
        }
      ]
    },
    {
      "name": "Object_1",
      "primitives": [
        {
          "attributes": {
            "NORMAL": 5,
            "POSITION": 4,
            "TEXCOORD_0": 6
          },
          "indices": 7,
          "material": 1,
          "mode": 4
        }
      ]
    },
    {
      "name": "Object_2",
      "primitives": [
        {
          "attributes": {
            "NORMAL": 9,
            "POSITION": 8,
            "TEXCOORD_0": 10
          },
          "indices": 11,
          "material": 2,
          "mode": 4
        }
      ]
    },
    {
      "name": "Object_3",
      "primitives": [
        {
          "attributes": {
            "NORMAL": 13,
            "POSITION": 12,
            "TEXCOORD_0": 14
          },
          "indices": 15,
          "material": 3,
          "mode": 4
        }
      ]
    },
    {
      "name": "Object_4",
      "primitives": [
        {
          "attributes": {
            "NORMAL": 17,
            "POSITION": 16,
            "TEXCOORD_0": 18
          },
          "indices": 19,
          "material": 3,
          "mode": 4
        }
      ]
    },
    {
      "name": "Object_5",
      "primitives": [
        {
          "attributes": {
            "NORMAL": 21,
            "POSITION": 20,
            "TEXCOORD_0": 22
          },
          "indices": 23,
          "material": 3,
          "mode": 4
        }
      ]
    },
    {
      "name": "Object_6",
      "primitives": [
        {
          "attributes": {
            "NORMAL": 25,
            "POSITION": 24,
            "TEXCOORD_0": 26
          },
          "indices": 27,
          "material": 3,
          "mode": 4
        }
      ]
    }
  ],
  "nodes": [
    {
      "children": [
        1
      ],
      "matrix": [
        1.0,
        0.0,
        0.0,
        0.0,
        0.0,
        2.220446049250313e-16,
        -1.0,
        0.0,
        0.0,
        1.0,
        2.220446049250313e-16,
        0.0,
        0.0,
        0.0,
        0.0,
        1.0
      ],
      "name": "Sketchfab_model"
    },
    {
      "children": [
        2
      ],
      "name": "root"
    },
    {
      "children": [
        3,
        7,
        9,
        11,
        13
      ],
      "matrix": [
        1.0,
        0.0,
        0.0,
        0.0,
        0.0,
        2.220446049250313e-16,
        1.0,
        0.0,
        0.0,
        -1.0,
        2.220446049250313e-16,
        0.0,
        0.0,
        0.0,
        0.0,
        1.0
      ],
      "name": "GLTF_SceneRootNode"
    },
    {
      "children": [
        4,
        5,
        6
      ],
      "matrix": [
        -0.8660252865417155,
        0.0,
        0.5000002030702984,
        0.0,
        0.0,
        1.0,
        0.0,
        0.0,
        -0.5000002030702984,
        0.0,
        -0.8660252865417155,
        0.0,
        0.0,
        0.0,
        0.0,
        1.0
      ],
      "name": "NurbsPath.002_2"
    },
    {
      "mesh": 0,
      "name": "Object_4"
    },
    {
      "mesh": 1,
      "name": "Object_5"
    },
    {
      "mesh": 2,
      "name": "Object_6"
    },
    {
      "children": [
        8
      ],
      "matrix": [
        -0.8660252865417155,
        0.0,
        0.5000002030702984,
        0.0,
        0.0,
        1.0,
        0.0,
        0.0,
        -0.5000002030702984,
        0.0,
        -0.8660252865417155,
        0.0,
        0.0,
        -2.4980931282043457,
        0.0,
        1.0
      ],
      "name": "NurbsPath.001_3"
    },
    {
      "mesh": 3,
      "name": "Object_8"
    },
    {
      "children": [
        10
      ],
      "name": "Sphere_4"
    },
    {
      "mesh": 4,
      "name": "Object_10"
    },
    {
      "children": [
        12
      ],
      "matrix": [
        -0.5000000828614422,
        0.0,
        -0.8660253559443574,
        0.0,
        0.0,
        1.0,
        0.0,
        0.0,
        0.8660253559443574,
        0.0,
        -0.5000000828614422,
        0.0,
        0.0,
        0.0,
        0.0,
        1.0
      ],
      "name": "Sphere.001_5"
    },
    {
      "mesh": 5,
      "name": "Object_12"
    },
    {
      "children": [
        14
      ],
      "matrix": [
        -0.49999989713185733,
        0.0,
        0.8660254631753804,
        0.0,
        0.0,
        1.0,
        0.0,
        0.0,
        -0.8660254631753804,
        0.0,
        -0.49999989713185733,
        0.0,
        0.0,
        0.0,
        0.0,
        1.0
      ],
      "name": "Sphere.002_6"
    },
    {
      "mesh": 6,
      "name": "Object_14"
    }
  ],
  "scene": 0,
  "scenes": [
    {
      "name": "Sketchfab_Scene",
      "nodes": [
        0
      ]
    }
  ]
}
