{"accessors" : [{"bufferView" : 0, "byteOffset" : 0, "componentType" : 5123, "count" : 2280, "type" : "SCALAR", "max" : [1803], "min" : [0]}, {"bufferView" : 1, "byteOffset" : 0, "componentType" : 5126, "count" : 1804, "type" : "VEC3", "max" : [8.441493034362793, 14.179387092590332, -2.359163999557495], "min" : [-8.441493034362793, -7.8619537353515625, -21.18177032470703], "name" : "POSITION"}, {"bufferView" : 1, "byteOffset" : 12, "componentType" : 5126, "count" : 1804, "type" : "VEC3", "max" : [0.9942324757575989, 0.9998961687088013, 1.000001072883606], "min" : [-0.9942324757575989, -0.9848259687423706, -0.9941564202308655], "name" : "NORMAL"}, {"bufferView" : 1, "byteOffset" : 24, "componentType" : 5126, "count" : 1804, "type" : "VEC2", "max" : [0.8630052208900452, -0.12351441383361816], "min" : [0.1832229495048523, -0.9640137553215027], "name" : "TEXCOORD_0"}], "asset" : {"generator" : "Aspose.3D 21.9", "version" : "2.0"}, "buffers" : [{"uri" : "data:application/octet-stream;base64,", "byteLength" : 77528}], "bufferViews" : [{"buffer" : 0, "byteOffset" : 0, "byteLength" : 4560, "target" : 34963}, {"buffer" : 0, "byteOffset" : 4564, "byteLength" : 72960, "byteStride" : 32, "target" : 34962}], "materials" : [{"name" : "", "pbrMetallicRoughness" : {"baseColorFactor" : [0.5, 0.5, 0.5, 1], "metallicFactor" : 0, "roughnessFactor" : 0}, "emissiveFactor" : [0, 0, 0], "alphaMode" : "OPAQUE", "doubleSided" : false}], "meshes" : [{"primitives" : [{"attributes" : {"POSITION" : 1, "NORMAL" : 2, "TEXCOORD_0" : 3}, "indices" : 0, "material" : 0, "mode" : 4}], "name" : "Geometry"}], "nodes" : [{"mesh" : 0, "name" : "Model"}], "scene" : 0, "scenes" : [{"nodes" : [0]}]}