{
  "accessors": [
    {
      "bufferView": 2,
      "componentType": 5126,
      "count": 9517,
      "max": [
        0.66223502159118652,
        0.86272239685058594,
        0.33420243859291077
      ],
      "min": [
        -0.68860518932342529,
        -2.760162353515625,
        -0.34677743911743164
      ],
      "type": "VEC3"
    },
    {
      "bufferView": 2,
      "byteOffset": 114204,
      "componentType": 5126,
      "count": 9517,
      "max": [
        0.99945366382598877,
        1,
        0.99999815225601196
      ],
      "min": [
        -0.99945497512817383,
        -1,
        -0.99999845027923584
      ],
      "type": "VEC3"
    },
    {
      "bufferView": 3,
      "componentType": 5126,
      "count": 9517,
      "max": [
        0.99999982118606567,
        0.99999862909317017,
        0.99972653388977051,
        1
      ],
      "min": [
        -0.99999856948852539,
        -1,
        -0.99971127510070801,
        -1
      ],
      "type": "VEC4"
    },
    {
      "bufferView": 1,
      "componentType": 5126,
      "count": 9517,
      "max": [
        1,
        1
      ],
      "min": [
        0,
        0
      ],
      "type": "VEC2"
    },
    {
      "bufferView": 0,
      "componentType": 5125,
      "count": 35496,
      "max": [
        9516
      ],
      "min": [
        0
      ],
      "type": "SCALAR"
    }
  ],
  "asset": {
    "extras": {
      "author": "Softmind Game Factory (https://sketchfab.com/softmind)",
      "license": "CC-BY-4.0 (http://creativecommons.org/licenses/by/4.0/)",
      "source": "https://sketchfab.com/3d-models/earring-jade-c91e552728fb4b149d52193fd3e03ac5",
      "title": "Earring Jade"
    },
    "generator": "Sketchfab-10.31.0",
    "version": "2.0"
  },
  "bufferViews": [
    {
      "buffer": 0,
      "byteLength": 141984,
      "byteOffset": 0,
      "name": "floatBufferViews",
      "target": 34963
    },
    {
      "buffer": 0,
      "byteLength": 76136,
      "byteOffset": 141984,
      "byteStride": 8,
      "name": "floatBufferViews",
      "target": 34962
    },
    {
      "buffer": 0,
      "byteLength": 228408,
      "byteOffset": 218120,
      "byteStride": 12,
      "name": "floatBufferViews",
      "target": 34962
    },
    {
      "buffer": 0,
      "byteLength": 152272,
      "byteOffset": 446528,
      "byteStride": 16,
      "name": "floatBufferViews",
      "target": 34962
    }
  ],
  "buffers": [
    {
      "byteLength": 598800,
      "uri": "scene.bin"
    }
  ],
  "images": [
    {
      "uri": "textures/PEARL_DROP_EARRINGSG_baseColor.png"
    },
    {
      "uri": "textures/PEARL_DROP_EARRINGSG_metallicRoughness.png"
    },
    {
      "uri": "textures/PEARL_DROP_EARRINGSG_normal.png"
    }
  ],
  "materials": [
    {
      "doubleSided": true,
      "emissiveFactor": [
        0,
        0,
        0
      ],
      "name": "PEARL_DROP_EARRINGSG",
      "normalTexture": {
        "index": 2,
        "scale": 1,
        "texCoord": 0
      },
      "pbrMetallicRoughness": {
        "baseColorFactor": [
          1,
          1,
          1,
          1
        ],
        "baseColorTexture": {
          "index": 0,
          "texCoord": 0
        },
        "metallicFactor": 1,
        "metallicRoughnessTexture": {
          "index": 1,
          "texCoord": 0
        },
        "roughnessFactor": 0.29182545731707321
      }
    }
  ],
  "meshes": [
    {
      "name": "accessory1_PEARL_DROP_EARRINGSG_0",
      "primitives": [
        {
          "attributes": {
            "NORMAL": 1,
            "POSITION": 0,
            "TANGENT": 2,
            "TEXCOORD_0": 3
          },
          "indices": 4,
          "material": 0,
          "mode": 4
        }
      ]
    }
  ],
  "nodes": [
    {
      "children": [
        1
      ],
      "name": "RootNode (gltf orientation matrix)",
      "rotation": [
        -0.70710678118654746,
        -0,
        -0,
        0.70710678118654757
      ]
    },
    {
      "children": [
        2
      ],
      "name": "RootNode (model correction matrix)"
    },
    {
      "children": [
        3
      ],
      "matrix": [
        1,
        0,
        0,
        0,
        0,
        0,
        1,
        0,
        0,
        -1,
        0,
        0,
        0,
        0,
        0,
        1
      ],
      "name": "70c17f07991e45c1a089208063eab1fb.fbx"
    },
    {
      "children": [
        4
      ],
      "name": "RootNode"
    },
    {
      "children": [
        5
      ],
      "matrix": [
        1,
        0,
        0,
        0,
        0,
        1,
        0,
        0,
        0,
        0,
        1,
        0,
        0,
        1.5418481826782227,
        0,
        1
      ],
      "name": "accessory1"
    },
    {
      "mesh": 0,
      "name": "accessory1_PEARL_DROP_EARRINGSG_0"
    }
  ],
  "samplers": [
    {
      "magFilter": 9729,
      "minFilter": 9987,
      "wrapS": 10497,
      "wrapT": 10497
    }
  ],
  "scene": 0,
  "scenes": [
    {
      "name": "OSG_Scene",
      "nodes": [
        0
      ]
    }
  ],
  "textures": [
    {
      "sampler": 0,
      "source": 0
    },
    {
      "sampler": 0,
      "source": 1
    },
    {
      "sampler": 0,
      "source": 2
    }
  ]
}

